<?xml version="1.0" encoding="utf-8"?>
<!-- Generator: Adobe Illustrator 21.0.0, SVG Export Plug-In . SVG Version: 6.00 Build 0)  -->
<svg version="1.1" id="Layer_1" xmlns="http://www.w3.org/2000/svg" xmlns:xlink="http://www.w3.org/1999/xlink" x="0px" y="0px"
	 viewBox="0 0 100 100" style="enable-background:new 0 0 100 100;" xml:space="preserve">
<g id="stones">
	<path d="M28.6,60.6c0,0-10-10.4-14-5.9c-4.1,4.5-4.1,10-4.1,10l4.1,3.5c3.3,2.8,7.9,3.5,11.9,1.8l3.7-1.6c1.7-0.7,2.2-2.9,1.1-4.3
		L28.6,60.6z"/>
	<path d="M95.1,74.1c-1.3-4-6.5-8.8-8.6-12.5c-2.7-4.5-7.9-7.4-12.3-10c-5.6-3.4-12-6.6-18.7-7.3c-13.1-1.4-21.4,29.4-21.4,29.4
		c-0.6,2.2,3.2,5.8,10.3,8.1c7.2,2.3,43.2,2.9,47,1.5C94.8,82.2,95.8,76.1,95.1,74.1z"/>
	<path d="M38.9,50.2c0-1.1-4.1-2.8-6-2.8c-3.7,0-6,3.3-6,4.3c0,1.1,3.8,1.9,7.2,1.9C36.4,53.6,38.9,51.3,38.9,50.2z"/>
</g>
</svg>
