<?xml version="1.0" encoding="utf-8"?>
<!-- Generator: Adobe Illustrator 21.0.0, SVG Export Plug-In . SVG Version: 6.00 Build 0)  -->
<svg version="1.1" id="Layer_1" xmlns="http://www.w3.org/2000/svg" xmlns:xlink="http://www.w3.org/1999/xlink" x="0px" y="0px"
	 viewBox="0 0 100 100" style="enable-background:new 0 0 100 100;" xml:space="preserve">
<path id="rock" d="M82.7,46.9l-5.3-2.4l-6.9-10.5l-14.2-2l-8.9,3.7L39,33.5l-13.8,2.1l-8.1,10v15.8l2.6,6.8l17.6,4.1l2.9,5.6h23.6
	l25.7-14.1L82.7,46.9z"/>
<path id="grass" d="M-68.1,78h5.4l3.9,0.3c0,0-5.6-44.5-11.2-55.7c6,24.7,6.6,42.6,6.3,50.8c-2.8-12.7-10.9-47.6-16.1-56.4
	c6.8,21.6,10,41.1,11.2,52.1c-0.8-2.9-2-5.9-3.6-8c1.6,3.3,0.9,17.3,0.9,17.3L-68.1,78z"/>
<g id="stones">
	<path d="M137.5,60.6c0,0-10-10.4-14-5.9c-4.1,4.5-4.1,10-4.1,10l4.1,3.5c3.3,2.8,7.9,3.5,11.9,1.8l3.7-1.6c1.7-0.7,2.2-2.9,1.1-4.3
		L137.5,60.6z"/>
	<path d="M204.1,74.1c-1.3-4-6.5-8.8-8.6-12.5c-2.7-4.5-7.9-7.4-12.3-10c-5.6-3.4-12-6.6-18.7-7.3c-13.1-1.4-21.4,29.4-21.4,29.4
		c-0.6,2.2,3.2,5.8,10.3,8.1c7.2,2.3,43.2,2.9,47,1.5C203.8,82.2,204.8,76.1,204.1,74.1z"/>
	<path d="M147.8,50.2c0-1.1-4.1-2.8-6-2.8c-3.7,0-6,3.3-6,4.3c0,1.1,3.8,1.9,7.2,1.9C145.4,53.6,147.8,51.3,147.8,50.2z"/>
</g>
</svg>
